
  <svg
    xmlns="http://www.w3.org/2000/svg"
    version="1.1"
    width="250"
    height="250"
    viewBox="0 0 500 500"
  >
    
  <rect
    width="500"
    height="500"
    rx="250"
    fill="#ece2e1"
  />

    <path fill="#d7b89c" d="M440.7 280.2c0 6.7-.4 13.1-1.2 19.2-1.1 7.9-2.9 15.2-5.3 21.9a86.3 86.3 0 01-20.7 32.6C393 374.3 362 385.2 325 390.6c-23 3.3-48.3 4.5-74.9 4.5a529 529 0 01-75-4.6c-68-9.8-115.7-38.4-115.7-110.3 0-96.3 85.4-174.3 190.7-174.3 95.7 0 175 64.4 188.6 148.3a161 161 0 012.1 26z"/>
  
    <path fill="#d7b89c" d="M401.5 174.3l-5.9-6.7a185.5 185.5 0 00-39.2-32c24.6-43.7 98-5.4 45 38.7zM98.5 174.3l6-6.7a185.5 185.5 0 0139.1-32c-24.5-43.7-98-5.4-45 38.7z"/>
    <path fill="#fec3aa" d="M395.6 167.6c-8.7-9.4-18.6-18-29.3-25.5 16.3-26.9 62.3-2.6 29.3 25.5zM104.4 167.6c8.8-9.4 18.6-18 29.3-25.5-16.3-26.9-62.3-2.6-29.3 25.5zM360 71.1l-1 14.7-1.7 27.9-.3 6.3-1 15.3a201 201 0 00-72-26.6l18.7-28.8 10.9-17 4.3-6.6c2.3-3.7 6.9-5.2 11-3.7l25 9.3a9.3 9.3 0 016 9.2zM216.1 108.7a201 201 0 00-71.9 26.6l-1-15.3-.3-6.3-1.7-27.9-.9-14.7c-.2-4 2.2-7.8 6-9.2l25-9.3c4.1-1.5 8.7 0 11 3.7l4.3 6.6 10.3 16 .7 1 10.2 15.8 8.3 13z"/>
    <path fill="#d7b89c" d="M337.5 72c0 5-10.5 9-23.5 9-4.1 0-8-.4-11.4-1.1l11-17h.4c13 0 23.5 4 23.5 9zM359 85.8l-1.7 27.9c-11.9-1.3-20.8-7-20.8-13.9 0-7.2 9.8-13.1 22.5-14zM207.8 95.7a73 73 0 01-13 3.8c-15.6 3.1-29 1.2-30-4.3-1.1-5.4 10.6-12.3 26-15.4l6.1-1 .7 1 10.2 16z"/>
  
    <path fill="#eabf9f" d="M202.2 99.6c34-8 67.5-7.6 100.4.9 9.3 2.3 14.9 8 13.7 14-7.5 39.7-60.1 79.2-70 71.6-10.8-8.2 2.3-31.4-9.5-33.1-10.4-1.5-25.9 15.9-37.8 11.8-2.7-.9-4.3-2.7-4.2-4.6a161 161 0 00-5.6-46.6c-1.8-6 3.6-11.8 13-14z"/>
  
    <path fill="#15212a" d="M249.8 294.6s-16.6-.3-16.6 4.9 11.6 18.9 16.6 18.9 16.7-14 16.7-18.9c0-5-16.7-5-16.7-5z"/>
    <path fill="#15212a" d="M296.2 323l-.1.4a24 24 0 01-3.5 7.6 21.3 21.3 0 01-6 5.6 25 25 0 01-30.3-3.2c-1.8-2-3.1-4.4-3.8-7-.8-2.5-.9-5.2-.6-7.8l.2-1.5-1.5-.2v-.2l-.8.1h-.7v.1l-1.5.2.1 1.5c.4 2.6.3 5.3-.5 7.9-.7 2.5-2 5-3.8 6.9a25 25 0 01-30.3 3.3 21.2 21.2 0 01-6-5.7 24 24 0 01-3.5-7.6l-.1-.5-1 .3.2.4a25 25 0 003.4 8c1.6 2.5 3.7 4.6 6.2 6.3 4.9 3.3 11 4.7 16.8 4.3a25 25 0 0016.1-7.1c2.1-2.2 3.7-4.9 4.6-7.8 1 3 2.6 5.6 4.7 7.8a25 25 0 0016 7c6 .5 12-1 17-4.2a22.6 22.6 0 009.5-14.3l.1-.5-.9-.2z"/>
    <path fill="#15212a" d="M148.9 311.9l.2-2 50.2 6.4-.2 2zM149.9 332.7l49.1-6.2.2 2-49 6.1zM160 357.1l40-21.8.9 1.8-40 21.8zM304.2 316.3l50.2-6.4.2 2-50.2 6.4zM304.2 328.5l.3-2 49 6.2-.2 2zM302.5 337l1-1.7 39.9 21.8-1 1.8z"/>
  
    <circle fill="#15212a" cx="168.62" cy="248.28" r="15.49"/>
    <circle fill="#fff" cx="163.62" cy="242.97" r="4.95"/>
    <circle fill="#15212a" cx="331.04" cy="248.28" r="15.49"/>
    <circle fill="#fff" cx="336.04" cy="242.97" r="4.95"/>
  
    <path fill="#15212a" d="M139.8 203c-1 0-2-.3-2.8-.9a5 5 0 01-1.3-7c10.5-15.5 25.8-20.4 45.7-14.5a5 5 0 11-2.9 9.6c-15.6-4.7-26.6-1.3-34.5 10.6a5 5 0 01-4.2 2.2zM361.4 203a5 5 0 01-4.2-2.2c-8-12-19-15.3-34.5-10.6a5 5 0 11-2.9-9.6c19.9-6 35.2-1 45.7 14.6a5 5 0 01-4.1 7.8z"/>
  
  <path
    d="M250,0a250,250 0 1,1 0,500"
    fill="#15212a"
    fill-opacity="0.08"
  />

  </svg>
