
  <svg
    xmlns="http://www.w3.org/2000/svg"
    version="1.1"
    width="250"
    height="250"
    viewBox="0 0 500 500"
  >
    
  <rect
    width="500"
    height="500"
    rx="250"
    fill="#ece2e1"
  />

    <path fill="#99c9bd" d="M440.7 280.2c0 6.7-.4 13.1-1.2 19.2-1.1 7.9-2.9 15.2-5.3 21.9a86.3 86.3 0 01-20.7 32.6C393 374.3 362 385.2 325 390.6c-23 3.3-48.3 4.5-74.9 4.5a529 529 0 01-75-4.6c-68-9.8-115.7-38.4-115.7-110.3 0-96.3 85.4-174.3 190.7-174.3 95.7 0 175 64.4 188.6 148.3a161 161 0 012.1 26z"/>
  
    <path fill="#7bab9f" d="M169 122.4C124 57.5 37.6 128 57 176.8c22.1 31.3 49.5 25.6 82.5-20.4a36 36 0 006.7-22.5c7.6-4.4 15.1-8.3 22.8-11.5zM331 122.4c44.9-64.9 131.4 5.7 112 54.4-22.1 31.3-49.5 25.6-82.5-20.4a36 36 0 01-6.7-22.5c-7.6-4.4-15.1-8.3-22.8-11.5z"/>
    <path fill="#15212a" d="M146.2 134c-.8-14-5-23.9-13.5-28 11.2-1 21.6 4.6 30.8 18.8l-17.3 9.1zM353.8 134c.8-14 5-23.9 13.5-28-11.2-1-21.6 4.6-30.8 18.8l17.3 9.1z"/>
  
    <path fill="#15212a" d="M250 278.7c-15.5 0-21.2 4.1-21.2 12.9 0 8.7 21.2 21.8 21.2 21.8s21.2-12.5 21.2-21.8-5.7-12.9-21.2-12.9z"/>
    <path fill="#15212a" d="M319.2 321c-.4-.9-1.4-1.3-2.4-1-21 9-42.8 13.5-65 13.5v-25.8a1.8 1.8 0 10-3.6 0v25.8c-21.3-.4-43-5-65.1-13.4-1-.4-2 0-2.3 1-.4.9 0 2 1 2.3a193.4 193.4 0 0068.7 13.7h1c22.8 0 45.1-4.6 66.7-13.7 1-.4 1.4-1.5 1-2.4z"/>
  
    <circle cx="169" cy="250" r="20.4" fill="#15212a"/>
    <circle cx="175.4" cy="255.8" r="9.6" fill="#fff"/>
    <circle cx="159.4" cy="241" r="4.2" fill="#fff"/>
    <circle cx="331" cy="250" r="20.4" fill="#15212a"/>
    <circle cx="324.6" cy="255.8" r="9.6" fill="#fff"/>
    <circle cx="340.6" cy="241" r="4.2" fill="#fff"/>
  
    <path fill="#15212a" d="M139.8 203c-1 0-2-.3-2.8-.9a5 5 0 01-1.3-7c10.5-15.5 25.8-20.4 45.7-14.5a5 5 0 11-2.9 9.6c-15.6-4.7-26.6-1.3-34.5 10.6a5 5 0 01-4.2 2.2zM361.4 203a5 5 0 01-4.2-2.2c-8-12-19-15.3-34.5-10.6a5 5 0 11-2.9-9.6c19.9-6 35.2-1 45.7 14.6a5 5 0 01-4.1 7.8z"/>
  
  <path
    d="M250,0a250,250 0 1,1 0,500"
    fill="#15212a"
    fill-opacity="0.08"
  />

  </svg>
