
  <svg
    xmlns="http://www.w3.org/2000/svg"
    version="1.1"
    width="250"
    height="250"
    viewBox="0 0 500 500"
  >
    
  <rect
    width="500"
    height="500"
    rx="250"
    fill="#b5f4bc"
  />

    <path fill="#b18272" d="M440.7 280.2c0 6.7-.4 13.1-1.2 19.2-1.1 7.9-2.9 15.2-5.3 21.9a86.3 86.3 0 01-20.7 32.6C393 374.3 362 385.2 325 390.6c-23 3.3-48.3 4.5-74.9 4.5a529 529 0 01-75-4.6c-68-9.8-115.7-38.4-115.7-110.3 0-96.3 85.4-174.3 190.7-174.3 95.7 0 175 64.4 188.6 148.3a161 161 0 012.1 26z"/>
  
    <path fill="#b18272" d="M132.3 143a185.8 185.8 0 00-42.6 42.7c-28.4-20.8-36.5-43-31.4-66.4a86.2 86.2 0 018.4-22.1c33.5 4 56.8 18 65.6 45.9zM409.9 185.1a176.3 176.3 0 00-43.1-42.7c9-27.4 32.1-41.2 65.4-45.2 4 7.5 6.8 14.8 8.3 22.1 5.1 23.1-2.8 45.2-30.6 65.8z"/>
    <path fill="#fec3aa" d="M103.9 168.2c-5.1 5.5-9.9 11.4-14.2 17.5-28.4-20.8-36.5-43-31.4-66.4 6.8 2.4 16.2 6.7 27 14.4a48.3 48.3 0 0118.6 34.5zM409.9 185.1c-4.5-6.3-9.4-12.3-14.7-18a47.9 47.9 0 0118.4-33.4c10.8-7.7 20.1-12 27-14.4 5 23.1-3 45.2-30.7 65.8z"/>
  
    <path fill="#fef6f4" d="M332 100.7c-10.2-27.5-29.9-29.9-53.6-21.5C273.2 72.5 266 67 250 66.3c-15.9.6-23.2 6.2-28.4 13-23.8-8.5-43.4-6.1-53.5 21.4-39 19.8-5.9 84.7 33 64.8 10.9 12 24.4 19.1 48.9 5.7 24.5 13.4 38 6.3 48.9-5.7 38.9 19.9 72-45 33-64.8z"/>
  
    <path fill="#15212a" d="M278.3 286.2a2 2 0 00-2 2c0 9.5-12.2 14.6-24.6 15V290h-3.4v13.2c-12.5-.4-24.6-5.5-24.6-15 0-1-.8-2-2-2s-2 1-2 2c0 6 3.5 11.1 10 14.6a44 44 0 0020.3 4.5c14.6 0 30.3-6 30.3-19 0-1.2-1-2-2-2z"/>
    <path fill="#15212a" d="M272.4 275c0-6.4-10.1-11.6-22.5-11.6s-22.5 5.2-22.5 11.5c0 2 1.1 4 3 5.7 1 .8 2 1.7 3.2 2.4l8.7 5.8a13.5 13.5 0 0015.2 0l9.7-6.6 1-.7c2.7-1.9 4.2-4.1 4.2-6.6z"/>
  
    <circle fill="#15212a" cx="168.96" cy="262.77" r="18.38"/>
    <circle fill="#fff" cx="163.12" cy="256.93" r="5.84"/>
    <circle fill="#15212a" cx="331.04" cy="262.77" r="18.38"/>
    <circle fill="#fff" cx="325.2" cy="256.93" r="5.84"/>
  
    <path fill="#15212a" d="M139.8 203c-1 0-2-.3-2.8-.9a5 5 0 01-1.3-7c10.5-15.5 25.8-20.4 45.7-14.5a5 5 0 11-2.9 9.6c-15.6-4.7-26.6-1.3-34.5 10.6a5 5 0 01-4.2 2.2zM361.4 203a5 5 0 01-4.2-2.2c-8-12-19-15.3-34.5-10.6a5 5 0 11-2.9-9.6c19.9-6 35.2-1 45.7 14.6a5 5 0 01-4.1 7.8z"/>
  
  <path
    d="M250,0a250,250 0 1,1 0,500"
    fill="#15212a"
    fill-opacity="0.08"
  />

  </svg>
