
  <svg
    xmlns="http://www.w3.org/2000/svg"
    version="1.1"
    width="250"
    height="250"
    viewBox="0 0 500 500"
  >
    
  <rect
    width="500"
    height="500"
    rx="250"
    fill="#ece2e1"
  />

    <path fill="#a1Ac88" d="M440.7 280.2c0 6.7-.4 13.1-1.2 19.2-1.1 7.9-2.9 15.2-5.3 21.9a86.3 86.3 0 01-20.7 32.6C393 374.3 362 385.2 325 390.6c-23 3.3-48.3 4.5-74.9 4.5a529 529 0 01-75-4.6c-68-9.8-115.7-38.4-115.7-110.3 0-96.3 85.4-174.3 190.7-174.3 95.7 0 175 64.4 188.6 148.3a161 161 0 012.1 26z"/>
  
    <path fill="#813d14" d="M399.9 72.3c-2.1 5.7-4.5 11.3-7.8 16.8l-.6 1-.6 1-1.4 2.1-1.5 2-1.6 2-1.8 1.8c-.6.6-1.1 1.2-1.8 1.7l-2 1.7-1 .8-1 .7c-5.7 4-12.1 6.5-18.4 8-5 1.3-10 2-15 2.6-1 4.3-2.4 8.5-4.1 12.6-5-2.4-10-4.7-15.1-6.7 2-3.8 3.6-7.9 4.8-12a86.7 86.7 0 003-20.4c.2-7-.2-14-1.1-21.2-1-7.1-2.3-14.2-4-21.3v-.1a5 5 0 019.7-2.6c2.3 7.2 4.3 14.5 5.9 22a147.8 147.8 0 013 33.3c3.4-.1 6.7-.4 10-.8 5.1-.8 9.9-2.2 14-4.5l.8-.5.8-.5 1.5-1 1.4-1.1 1.4-1.2 1.3-1.4 1.3-1.3 1.2-1.5.6-.8.6-.8c3.1-4.2 5.8-9.2 8.3-14.3a5 5 0 019.2 4zM100.3 72.3c2 5.7 4.4 11.3 7.7 16.8l.6 1 .7 1 1.4 2.1 1.5 2 1.5 2 1.8 1.8 1.8 1.7 2 1.7 1 .8 1 .7c5.7 4 12.2 6.5 18.4 8 5 1.3 10.1 2 15 2.6 1 4.3 2.4 8.5 4.2 12.6 4.9-2.4 10-4.7 15-6.7-2-3.8-3.5-7.9-4.7-12a86.7 86.7 0 01-3-20.4c-.2-7 .2-14 1-21.2 1-7.1 2.4-14.2 4-21.3v-.1a5 5 0 00-9.6-2.6c-2.3 7.2-4.4 14.5-6 22a147.8 147.8 0 00-3 33.3c-3.4-.1-6.7-.4-9.9-.8-5.2-.8-10-2.2-14.1-4.5l-.8-.5-.7-.5-1.5-1-1.4-1.1-1.4-1.2-1.3-1.4c-.5-.4-1-.8-1.3-1.3l-1.3-1.5-.6-.8-.6-.8a93.6 93.6 0 01-8.2-14.3 5 5 0 00-9.3 4z"/>
    <path fill="#a1Ac88" d="M408 148.5c-5.9 3.7-13.4 6.7-22.6 9-10.8-10-23-18.8-36.1-26.1a57 57 0 0138.7-18.1c10.8-.9 22.6.5 35.4 3.9 1.6 13.5-3.6 23.8-15.4 31.3zM92 148.5c6 3.7 13.5 6.7 22.6 9 10.8-10 23-18.8 36.2-26.1a57 57 0 00-38.8-18.1c-10.8-.9-22.6.5-35.4 3.9C75 130.7 80.3 141 92 148.5z"/>
    <path fill="#15212a" d="M408 148.5c19.7-24.5 3.3-31.5-20-35.2 10.8-.9 22.6.5 35.4 3.9 1.6 13.5-3.6 23.8-15.4 31.3zM92 148.5c-19.7-24.5-3.2-31.5 20-35.2-10.8-.9-22.6.5-35.4 3.9C75 130.7 80.3 141 92 148.5z"/>
  
    <path fill="#fef6f4" d="M332 100.7c-10.2-27.5-29.9-29.9-53.6-21.5C273.2 72.5 266 67 250 66.3c-15.9.6-23.2 6.2-28.4 13-23.8-8.5-43.4-6.1-53.5 21.4-39 19.8-5.9 84.7 33 64.8 10.9 12 24.4 19.1 48.9 5.7 24.5 13.4 38 6.3 48.9-5.7 38.9 19.9 72-45 33-64.8z"/>
  
    <path fill="#15212a" d="M249.23 293.56c-24.54-7.26-40.9-32.68 1.34-33.81 40.65 1.14 25.14 26.93 1.34 33.82-.87.25-1.81.24-2.68-.01z"/>
    <path fill="#15212a" d="M288.25 294.99c-7.94 7.07-15.74 12.03-23.51 14.78a42.65 42.65 0 0 1-15.01 2.74 41.63 41.63 0 0 1-14.75-2.68c-7.73-2.74-15.47-7.7-23.24-14.88a1.62 1.62 0 0 1-.1-2.31 1.67 1.67 0 0 1 2.35-.1c7.78 7.15 15.41 12.03 23.02 14.58 1.19.4 2.37.74 3.56 1.03a38.47 38.47 0 0 0 18.35 0c1.15-.28 2.3-.6 3.46-.99 7.74-2.54 15.59-7.43 23.65-14.65a1.7 1.7 0 0 1 2.35.13c.59.69.56 1.75-.13 2.35z"/>
  
    <circle cx="169" cy="254.2" r="18.9" fill="#15212a"/>
    <circle cx="175.9" cy="258.3" r="6.3" fill="#fff"/>
    <circle cx="331" cy="254.2" r="18.9" fill="#15212a"/>
    <circle cx="324.1" cy="258.3" r="6.3" fill="#fff"/>
  
    <path fill="#15212a" d="M333 196.7h-.4l-27.6-2.1a5 5 0 01.8-10l27.5 2a5 5 0 01-.3 10zM166.6 196.7h.4l27.5-2.1a5 5 0 00-.7-10l-27.6 2a5 5 0 00.4 10z"/>
  
  <path
    d="M250,0a250,250 0 1,1 0,500"
    fill="#15212a"
    fill-opacity="0.08"
  />

  </svg>
