
  <svg
    xmlns="http://www.w3.org/2000/svg"
    version="1.1"
    width="250"
    height="250"
    viewBox="0 0 500 500"
  >
    
  <rect
    width="500"
    height="500"
    rx="250"
    fill="#e4e3cd"
  />

    <path fill="#50c8c6" d="M440.7 280.2c0 6.7-.4 13.1-1.2 19.2-1.1 7.9-2.9 15.2-5.3 21.9a86.3 86.3 0 01-20.7 32.6C393 374.3 362 385.2 325 390.6c-23 3.3-48.3 4.5-74.9 4.5a529 529 0 01-75-4.6c-68-9.8-115.7-38.4-115.7-110.3 0-96.3 85.4-174.3 190.7-174.3 95.7 0 175 64.4 188.6 148.3a161 161 0 012.1 26z"/>
  
    <path fill="#50c8c6" d="M396.4 168.5l-4-4.2a190.3 190.3 0 00-74.2-47c9.7-15.7 38.6-48.2 59.6-54.2 4.6-1.4 9.6.7 12 4.8 22.4 38.8 11.6 84.5 6.6 100.6zM103.6 168.5l4-4.2a190.3 190.3 0 0174.2-47c-9.7-15.7-38.6-48.2-59.6-54.2-4.6-1.4-9.6.7-12 4.8-22.4 38.8-11.6 84.5-6.6 100.6z"/>
    <path fill="#fec3aa" d="M392.4 164.3a190.3 190.3 0 00-57.6-40.2c8.4-12.5 28.6-34.4 43.4-38.7a8 8 0 019 3.6c16.8 28.9 9 62.8 5.2 75.3zM107.6 164.3a190.3 190.3 0 0157.6-40.2c-8.4-12.5-28.6-34.4-43.4-38.7a8 8 0 00-9 3.6c-16.8 28.9-9 62.8-5.2 75.3z"/>
  
    <path fill="#50c8c6" d="M309.5 114.6c-18.7-5.6-38.7-8.6-59.4-8.6 -10.6 0-21 0.8-31.1 2.3 -8.1-10.8-13-23.6-14-37 0-0.4-0.1-0.8-0.1-1.2 -0.6-11.3 5.6-23.1 5.6-23.1s1.8 10.8 8.9 24.3c7 13.2 19.6 18.4 20 18.6 -0.1-0.2-3.4-4.4-1.2-21.4 2.6-19.5 18.6-28.4 18.6-28.4s-4 11.7-2 25c2.5 16.2 15.9 27.3 15.9 27.3s0.3-8.3 5.2-21.5c4.9-13.2 15.7-20.7 15.7-20.7s-2.4 9.8-2.4 27.9C289 93.1 304.5 109.6 309.5 114.6z"/>
  
    <path fill="#15212a" d="M288.6 308.7a2.8 2.8 0 00-3.5-1.4l-18.5 7c0-.2-.1-.3-.3-.3-6.6-3.8-11.5-11.6-14.8-23.8 9.6 0 17 .7 17-9a18.5 18.5 0 10-37 0c0 9.7 7.5 9 17 9v.3c3.3 12.3 8 20.5 14.7 25-12 4.5-21.4 8.3-19 8.5 0 0 30.7-5.2 39.8-8.7 5.4-2.1 5.4-4.8 4.6-6.6z"/>
  
    <circle cx="169" cy="254.5" r="17.2" fill="#15212a"/>
    <circle cx="175.3" cy="247.8" r="5.9" fill="#fff"/>
    <circle cx="331" cy="254.5" r="17.2" fill="#15212a"/>
    <circle cx="324.7" cy="247.8" r="5.9" fill="#fff"/>
  
    <path fill="#15212a" d="M333 196.7h-.4l-27.6-2.1a5 5 0 01.8-10l27.5 2a5 5 0 01-.3 10zM166.6 196.7h.4l27.5-2.1a5 5 0 00-.7-10l-27.6 2a5 5 0 00.4 10z"/>
  
  <path
    d="M250,0a250,250 0 1,1 0,500"
    fill="#15212a"
    fill-opacity="0.08"
  />

  </svg>
