
  <svg
    xmlns="http://www.w3.org/2000/svg"
    version="1.1"
    width="250"
    height="250"
    viewBox="0 0 500 500"
  >
    
  <rect
    width="500"
    height="500"
    rx="250"
    fill="#ece2e1"
  />

    <path fill="#a1Ac88" d="M440.7 280.2c0 6.7-.4 13.1-1.2 19.2-1.1 7.9-2.9 15.2-5.3 21.9a86.3 86.3 0 01-20.7 32.6C393 374.3 362 385.2 325 390.6c-23 3.3-48.3 4.5-74.9 4.5a529 529 0 01-75-4.6c-68-9.8-115.7-38.4-115.7-110.3 0-96.3 85.4-174.3 190.7-174.3 95.7 0 175 64.4 188.6 148.3a161 161 0 012.1 26z"/>
  
    <path fill="#bfcaa6" d="M235 161.3c14.4 27.5 0 71-41.1 115.2-31.8 34.1-86.6 16.8-101-10.8s7.5-67.4 48.9-89 78.9-43 93.3-15.4z"/>
  
    <path fill="#a1Ac88" d="M169 122.4a192.3 192.3 0 00-68 49C76.4 142 81.3 125 110 88c31.7 0 58.3 4.1 59 34.5zM331 122.4a192.3 192.3 0 0168 49c24.6-29.4 19.6-46.4-9-83.5-31.7 0-58.3 4.1-59 34.5z"/>
    <path fill="#fec3aa" d="M155.6 128.7c-20 10.5-37.8 24.1-52.4 40.2-16.6-20.5-20.3-33.3.4-60 21.5 0 47 2.5 52 19.8zM344.4 128.7c20 10.5 37.8 24.1 52.4 40.2 16.6-20.5 20.3-33.3-.4-60-21.5 0-47 2.5-52 19.8z"/>
  
    <path fill="#a1Ac88" d="M309.5 114.6c-18.7-5.6-38.7-8.6-59.4-8.6 -10.6 0-21 0.8-31.1 2.3 -8.1-10.8-13-23.6-14-37 0-0.4-0.1-0.8-0.1-1.2 -0.6-11.3 5.6-23.1 5.6-23.1s1.8 10.8 8.9 24.3c7 13.2 19.6 18.4 20 18.6 -0.1-0.2-3.4-4.4-1.2-21.4 2.6-19.5 18.6-28.4 18.6-28.4s-4 11.7-2 25c2.5 16.2 15.9 27.3 15.9 27.3s0.3-8.3 5.2-21.5c4.9-13.2 15.7-20.7 15.7-20.7s-2.4 9.8-2.4 27.9C289 93.1 304.5 109.6 309.5 114.6z"/>
  
    <path fill="#fff" d="M299.9 307.2c0 35-22.3 63.3-49.9 63.3s-49.9-28.3-49.9-63.3 22.4-46.7 49.9-46.7 49.9 11.8 49.9 46.7z"/>
    <path fill="#f3252f" d="M250 315l12.3 7.8c0 23-24.2 23.2-24.4.4v-.4l12.1-7.7z"/>
    <path fill="#15212a" d="M285.2 316c-.8-.3-1.6.2-1.8 1-.9 2.9-3.1 4.8-6.7 5.7A26.5 26.5 0 01254 316c-.5-.5-1-1-1.3-1.6v-7.2c15-1 26.7-11 26.7-22.9 0-12.7-13.2-11.2-29.4-11.2s-29.4-1.5-29.4 11.2c0 12 11.8 21.9 26.8 22.9v7c-.4.7-.9 1.3-1.4 1.8a26.6 26.6 0 01-22.7 6.6c-3.6-1-5.9-2.8-6.7-5.7-.2-.8-1-1.3-1.8-1-.8.2-1.3 1-1 1.8 1 4 4.1 6.6 8.7 7.8a29.9 29.9 0 0025.6-7.3c.8-.8 1.4-1.6 1.9-2.4.5.8 1.1 1.6 1.9 2.3a29.9 29.9 0 0025.6 7.4c4.6-1.2 7.6-3.9 8.8-7.8.2-.8-.3-1.6-1-1.9z"/>
  
    <circle cx="169" cy="250" r="20.4" fill="#15212a"/>
    <circle cx="175.4" cy="255.8" r="9.6" fill="#fff"/>
    <circle cx="159.4" cy="241" r="4.2" fill="#fff"/>
    <circle cx="331" cy="250" r="20.4" fill="#15212a"/>
    <circle cx="324.6" cy="255.8" r="9.6" fill="#fff"/>
    <circle cx="340.6" cy="241" r="4.2" fill="#fff"/>
  
    <path fill="#15212a" d="M139.8 203c-1 0-2-.3-2.8-.9a5 5 0 01-1.3-7c10.5-15.5 25.8-20.4 45.7-14.5a5 5 0 11-2.9 9.6c-15.6-4.7-26.6-1.3-34.5 10.6a5 5 0 01-4.2 2.2zM361.4 203a5 5 0 01-4.2-2.2c-8-12-19-15.3-34.5-10.6a5 5 0 11-2.9-9.6c19.9-6 35.2-1 45.7 14.6a5 5 0 01-4.1 7.8z"/>
  
  <path
    d="M250,0a250,250 0 1,1 0,500"
    fill="#15212a"
    fill-opacity="0.08"
  />

  </svg>
