
  <svg
    xmlns="http://www.w3.org/2000/svg"
    version="1.1"
    width="250"
    height="250"
    viewBox="0 0 500 500"
  >
    
  <rect
    width="500"
    height="500"
    rx="250"
    fill="#e4e3cd"
  />

    <path fill="#99c9bd" d="M440.7 280.2c0 6.7-.4 13.1-1.2 19.2-1.1 7.9-2.9 15.2-5.3 21.9a86.3 86.3 0 01-20.7 32.6C393 374.3 362 385.2 325 390.6c-23 3.3-48.3 4.5-74.9 4.5a529 529 0 01-75-4.6c-68-9.8-115.7-38.4-115.7-110.3 0-96.3 85.4-174.3 190.7-174.3 95.7 0 175 64.4 188.6 148.3a161 161 0 012.1 26z"/>
  
    <ellipse cx="323.8" cy="217.4" fill="#b7e7db" rx="52.3" ry="77.6" transform="rotate(-32.5 323.8 217.4)"/>
  
    <path fill="#813d14" d="M399.9 72.3c-2.1 5.7-4.5 11.3-7.8 16.8l-.6 1-.6 1-1.4 2.1-1.5 2-1.6 2-1.8 1.8c-.6.6-1.1 1.2-1.8 1.7l-2 1.7-1 .8-1 .7c-5.7 4-12.1 6.5-18.4 8-5 1.3-10 2-15 2.6-1 4.3-2.4 8.5-4.1 12.6-5-2.4-10-4.7-15.1-6.7 2-3.8 3.6-7.9 4.8-12a86.7 86.7 0 003-20.4c.2-7-.2-14-1.1-21.2-1-7.1-2.3-14.2-4-21.3v-.1a5 5 0 019.7-2.6c2.3 7.2 4.3 14.5 5.9 22a147.8 147.8 0 013 33.3c3.4-.1 6.7-.4 10-.8 5.1-.8 9.9-2.2 14-4.5l.8-.5.8-.5 1.5-1 1.4-1.1 1.4-1.2 1.3-1.4 1.3-1.3 1.2-1.5.6-.8.6-.8c3.1-4.2 5.8-9.2 8.3-14.3a5 5 0 019.2 4zM100.3 72.3c2 5.7 4.4 11.3 7.7 16.8l.6 1 .7 1 1.4 2.1 1.5 2 1.5 2 1.8 1.8 1.8 1.7 2 1.7 1 .8 1 .7c5.7 4 12.2 6.5 18.4 8 5 1.3 10.1 2 15 2.6 1 4.3 2.4 8.5 4.2 12.6 4.9-2.4 10-4.7 15-6.7-2-3.8-3.5-7.9-4.7-12a86.7 86.7 0 01-3-20.4c-.2-7 .2-14 1-21.2 1-7.1 2.4-14.2 4-21.3v-.1a5 5 0 00-9.6-2.6c-2.3 7.2-4.4 14.5-6 22a147.8 147.8 0 00-3 33.3c-3.4-.1-6.7-.4-9.9-.8-5.2-.8-10-2.2-14.1-4.5l-.8-.5-.7-.5-1.5-1-1.4-1.1-1.4-1.2-1.3-1.4c-.5-.4-1-.8-1.3-1.3l-1.3-1.5-.6-.8-.6-.8a93.6 93.6 0 01-8.2-14.3 5 5 0 00-9.3 4z"/>
    <path fill="#99c9bd" d="M408 148.5c-5.9 3.7-13.4 6.7-22.6 9-10.8-10-23-18.8-36.1-26.1a57 57 0 0138.7-18.1c10.8-.9 22.6.5 35.4 3.9 1.6 13.5-3.6 23.8-15.4 31.3zM92 148.5c6 3.7 13.5 6.7 22.6 9 10.8-10 23-18.8 36.2-26.1a57 57 0 00-38.8-18.1c-10.8-.9-22.6.5-35.4 3.9C75 130.7 80.3 141 92 148.5z"/>
    <path fill="#15212a" d="M408 148.5c19.7-24.5 3.3-31.5-20-35.2 10.8-.9 22.6.5 35.4 3.9 1.6 13.5-3.6 23.8-15.4 31.3zM92 148.5c-19.7-24.5-3.2-31.5 20-35.2-10.8-.9-22.6.5-35.4 3.9C75 130.7 80.3 141 92 148.5z"/>
  
    <path fill="#fef6f4" d="M332 100.7c-10.2-27.5-29.9-29.9-53.6-21.5C273.2 72.5 266 67 250 66.3c-15.9.6-23.2 6.2-28.4 13-23.8-8.5-43.4-6.1-53.5 21.4-39 19.8-5.9 84.7 33 64.8 10.9 12 24.4 19.1 48.9 5.7 24.5 13.4 38 6.3 48.9-5.7 38.9 19.9 72-45 33-64.8z"/>
  
    <path fill="#fff" d="M210.3 362L193 359a3.2 3.2 0 01-2.6-3.4l1.1-18c.1-1.9 2-3.3 3.8-3l22 4c2 .4 3.2 2.5 2.5 4.3l-6 17.1c-.4 1.5-2 2.4-3.6 2.1zM289.8 362L307 359a3.2 3.2 0 002.6-3.4l-1.1-18c-.1-1.9-2-3.3-3.8-3l-22 4c-2 .4-3.2 2.5-2.5 4.3l6 17.1c.4 1.5 2 2.4 3.6 2.1z"/>
    <path fill="#7bab9f" d="M275.7 273.1c-9.4 0-18.2-1.5-25.7 2-7.5-3.5-16.3-2-25.7-2-27.9 0-50.5 17.4-50.5 39 0 21.4 22.6 38.8 50.5 38.8 9.4 0 18.2-6.8 25.7-10.2 7.5 3.4 16.3 10.2 25.7 10.2 27.9 0 50.5-17.4 50.5-38.9s-22.6-38.9-50.5-38.9z"/>
    <path fill="#15212a" d="M219.9 307.1c-.9 0-1.7 0-2.6-.2a4 4 0 01.5-8h2.1c2.6 0 4.6-1 5.5-5.8a4 4 0 014.7-3.2 4 4 0 013.2 4.7c-1.5 8-6.3 12.5-13.4 12.5zM281.1 307.1c.9 0 1.7 0 2.6-.2a4 4 0 00-.5-8h-2.1c-2.6 0-4.6-1-5.5-5.8a4 4 0 00-4.7-3.2 4 4 0 00-3.2 4.7c1.5 8 6.3 12.5 13.4 12.5z"/>
  
    <path fill="#15212a" d="M339.3 256.8c0 15.3-8 15.1-17.9 15.1-9.8 0-17.8.2-17.8-15 0-15.4 8-27.8 17.8-27.8 9.9 0 17.9 12.4 17.9 27.7z"/>
    <ellipse cx="329.2" cy="241.9" fill="#fff" rx="5.1" ry="7.5" transform="rotate(-22 329.2 242)"/>
    <path fill="#15212a" d="M196.5 256.8c0 15.3-8 15.1-18 15.1s-17.8.2-17.8-15c0-15.4 8-27.8 17.9-27.8s17.9 12.4 17.9 27.7z"/>
    <ellipse cx="186.4" cy="241.9" fill="#fff" rx="5.1" ry="7.5" transform="rotate(-22 186.4 242)"/>
  
    <ellipse fill="#15212a" cx="348" cy="190.6" rx="8.3" ry="19.4" transform="rotate(-57.5 348 190.6)"/>
    <ellipse fill="#15212a" cx="152" cy="205.1" rx="19.4" ry="8.3" transform="rotate(-32.5 152 205)"/>
  
  <path
    d="M250,0a250,250 0 1,1 0,500"
    fill="#15212a"
    fill-opacity="0.08"
  />

  </svg>
