
  <svg
    xmlns="http://www.w3.org/2000/svg"
    version="1.1"
    width="250"
    height="250"
    viewBox="0 0 500 500"
  >
    
  <rect
    width="500"
    height="500"
    rx="250"
    fill="#e4e3cd"
  />

    <path fill="#99c9bd" d="M440.7 280.2c0 6.7-.4 13.1-1.2 19.2-1.1 7.9-2.9 15.2-5.3 21.9a86.3 86.3 0 01-20.7 32.6C393 374.3 362 385.2 325 390.6c-23 3.3-48.3 4.5-74.9 4.5a529 529 0 01-75-4.6c-68-9.8-115.7-38.4-115.7-110.3 0-96.3 85.4-174.3 190.7-174.3 95.7 0 175 64.4 188.6 148.3a161 161 0 012.1 26z"/>
  
    <path fill="#b4a5a5" d="M141.3 140c2.3 7.6 28.7-1.3 26-13.2 0-64.8-28.5-105.3-67-50.6 25.7-13 39.8 7 41 63.8zM358.7 140c-2.3 7.6-28.7-1.3-26.1-13.2 0-64.8 28.6-105.3 67.1-50.6-25.8-13-39.8 7-41 63.8z"/>
    <path fill="#99c9bd" d="M135.9 140.5a177 177 0 00-55.7 60.3c-107.4-4-38.6-64.3 55.7-60.3zM364.1 140.5a177 177 0 0155.7 60.3c107.3-4 38.6-64.3-55.7-60.3z"/>
    <path fill="#fff" d="M388.7 160.6a177 177 0 0128 34.9c68.8-1 72.8-34.4-28-35zM111.3 160.6a177 177 0 00-28 34.9c-68.8-1-72.8-34.4 28-35z"/>
  
    <path fill="#7bab9f" d="M297.8 78.3a4.8 4.8 0 01-4.2 5.2c-4.2.4-8.3 1-12.2 2-3.9 1-7.6 2.6-11 4.6a37.6 37.6 0 00-12.9 12.3l-1.5 2.7-.5.9a165.9 165.9 0 00-8.8 0l-1.5-3c-.9-.6-1.8-1.3-2.8-1.8-3-1.6-6.3-2.5-9.6-2.8-6.8-.6-13.7.6-20.5 2.4a3.8 3.8 0 11-1.5-7.5c3.7-.5 7.5-.9 11.3-1 3.8 0 7.7.3 11.5 1.1 2.2.5 4.4 1.2 6.5 2.2-2-2.4-4.3-4.6-6.9-6.5-6.9-5-15.4-7.3-24.1-7.6a5.7 5.7 0 11.4-11.5h.6c5.1.7 10.3 2 15.2 4a47.7 47.7 0 0123 20 65.6 65.6 0 00-11.5-38.4 6.7 6.7 0 1111.7-6.7v.1a76.7 76.7 0 017 44 42 42 0 0110.3-10c4-2.8 8.5-4.9 13-6.3 4.6-1.4 9.2-2.4 13.9-2.8 2.6-.2 5 1.8 5.1 4.4z"/>
  
    <path fill="#15212a" d="M249.8 294.6s-16.6-.3-16.6 4.9 11.6 18.9 16.6 18.9 16.7-14 16.7-18.9c0-5-16.7-5-16.7-5z"/>
    <path fill="#15212a" d="M296.2 323l-.1.4a24 24 0 01-3.5 7.6 21.3 21.3 0 01-6 5.6 25 25 0 01-30.3-3.2c-1.8-2-3.1-4.4-3.8-7-.8-2.5-.9-5.2-.6-7.8l.2-1.5-1.5-.2v-.2l-.8.1h-.7v.1l-1.5.2.1 1.5c.4 2.6.3 5.3-.5 7.9-.7 2.5-2 5-3.8 6.9a25 25 0 01-30.3 3.3 21.2 21.2 0 01-6-5.7 24 24 0 01-3.5-7.6l-.1-.5-1 .3.2.4a25 25 0 003.4 8c1.6 2.5 3.7 4.6 6.2 6.3 4.9 3.3 11 4.7 16.8 4.3a25 25 0 0016.1-7.1c2.1-2.2 3.7-4.9 4.6-7.8 1 3 2.6 5.6 4.7 7.8a25 25 0 0016 7c6 .5 12-1 17-4.2a22.6 22.6 0 009.5-14.3l.1-.5-.9-.2z"/>
    <path fill="#15212a" d="M148.9 311.9l.2-2 50.2 6.4-.2 2zM149.9 332.7l49.1-6.2.2 2-49 6.1zM160 357.1l40-21.8.9 1.8-40 21.8zM304.2 316.3l50.2-6.4.2 2-50.2 6.4zM304.2 328.5l.3-2 49 6.2-.2 2zM302.5 337l1-1.7 39.9 21.8-1 1.8z"/>
  
    <circle fill="#15212a" cx="331.04" cy="253.21" r="22.21"/>
    <circle fill="#fff" cx="338.81" cy="246.07" r="8.97"/>
    <circle fill="#fff" cx="322.5" cy="263.97" r="5.01"/>
    <circle fill="#15212a" cx="168.96" cy="253.21" r="22.21"/>
    <circle fill="#fff" cx="161.19" cy="246.07" r="8.97"/>
    <circle fill="#fff" cx="177.5" cy="263.97" r="5.01"/>
  
    <ellipse fill="#15212a" cx="348" cy="190.6" rx="8.3" ry="19.4" transform="rotate(-57.5 348 190.6)"/>
    <ellipse fill="#15212a" cx="152" cy="205.1" rx="19.4" ry="8.3" transform="rotate(-32.5 152 205)"/>
  
  <path
    d="M250,0a250,250 0 1,1 0,500"
    fill="#15212a"
    fill-opacity="0.08"
  />

  </svg>
