
  <svg
    xmlns="http://www.w3.org/2000/svg"
    version="1.1"
    width="250"
    height="250"
    viewBox="0 0 500 500"
  >
    
  <rect
    width="500"
    height="500"
    rx="250"
    fill="#b5f4bc"
  />

    <path fill="#d7b89c" d="M440.7 280.2c0 6.7-.4 13.1-1.2 19.2-1.1 7.9-2.9 15.2-5.3 21.9a86.3 86.3 0 01-20.7 32.6C393 374.3 362 385.2 325 390.6c-23 3.3-48.3 4.5-74.9 4.5a529 529 0 01-75-4.6c-68-9.8-115.7-38.4-115.7-110.3 0-96.3 85.4-174.3 190.7-174.3 95.7 0 175 64.4 188.6 148.3a161 161 0 012.1 26z"/>
  
    <path fill="#f5d6ba" d="M156 387.1c-57.8-12.3-96.7-42-96.7-107 0-9.4.8-18.6 2.4-27.6 19.1 3.4 39.3 17 53.6 38.1a105 105 0 015 8.2 73.6 73.6 0 0021 23.8c4.9 3.6 9.5 8.3 13.3 14 12.3 18.2 12.6 40 1.3 50.5z"/>
  
    <path fill="#d7b89c" d="M396.4 168.5l-4-4.2a190.3 190.3 0 00-74.2-47c9.7-15.7 38.6-48.2 59.6-54.2 4.6-1.4 9.6.7 12 4.8 22.4 38.8 11.6 84.5 6.6 100.6zM103.6 168.5l4-4.2a190.3 190.3 0 0174.2-47c-9.7-15.7-38.6-48.2-59.6-54.2-4.6-1.4-9.6.7-12 4.8-22.4 38.8-11.6 84.5-6.6 100.6z"/>
    <path fill="#fec3aa" d="M392.4 164.3a190.3 190.3 0 00-57.6-40.2c8.4-12.5 28.6-34.4 43.4-38.7a8 8 0 019 3.6c16.8 28.9 9 62.8 5.2 75.3zM107.6 164.3a190.3 190.3 0 0157.6-40.2c-8.4-12.5-28.6-34.4-43.4-38.7a8 8 0 00-9 3.6c-16.8 28.9-9 62.8-5.2 75.3z"/>
  
    <path fill="#fff" d="M250 328v25.9c-8.2.6-16.5 1-25 .4a89 89 0 01-14.1-2c-4.8-1-9.5-2.6-14.1-5a34.6 34.6 0 01-18.4-23.7c-1-4.7-1.2-9.4-1-13.9.3-4.5 1-8.8 2-13a2.7 2.7 0 015.3.6c-.2 8.2.6 16.5 3.6 23.2 1.5 3.3 3.5 6.1 6 8.2 2.5 2 5.3 3.5 8.6 4.4 6.5 1.8 14 1.7 21.6.6 7.6-1 15.3-3 23-5.3.8-.2 1.7-.4 2.5-.4z"/>
    <path fill="#fff" d="M250 328v25.9c8.2.6 16.5 1 25 .4a89 89 0 0014.1-2c4.8-1 9.6-2.6 14.1-5a34.6 34.6 0 0018.4-23.7c1-4.7 1.2-9.4 1-13.9-.3-4.5-1-8.8-2-13a2.7 2.7 0 00-5.3.6c.2 8.2-.6 16.5-3.6 23.2a22.8 22.8 0 01-6 8.2c-2.5 2-5.3 3.5-8.6 4.4-6.5 1.8-14 1.7-21.6.6-7.6-1-15.3-3-23-5.3-.8-.2-1.7-.4-2.5-.4z"/>
    <path fill="#b99a7e" d="M292.8 330.6c0 1.2 0 2.3-.2 3.4-2.2 16.6-20.4 24.4-42.6 24.4-22 0-40.3-7.7-42.6-24.2a25.2 25.2 0 01-.2-3.6v-2c1.4-17.2 20-44.2 42.8-44.2 22.9 0 41.6 27.2 42.8 44.5v1.7z"/>
    <circle fill="#15212a" cx="270.6" cy="335.6" r="8.1"/>
    <circle fill="#15212a" cx="229.4" cy="335.6" r="8.1"/>
  
    <path fill="#15212a" d="M339.3 256.8c0 15.3-8 15.1-17.9 15.1-9.8 0-17.8.2-17.8-15 0-15.4 8-27.8 17.8-27.8 9.9 0 17.9 12.4 17.9 27.7z"/>
    <ellipse cx="329.2" cy="241.9" fill="#fff" rx="5.1" ry="7.5" transform="rotate(-22 329.2 242)"/>
    <path fill="#15212a" d="M196.5 256.8c0 15.3-8 15.1-18 15.1s-17.8.2-17.8-15c0-15.4 8-27.8 17.9-27.8s17.9 12.4 17.9 27.7z"/>
    <ellipse cx="186.4" cy="241.9" fill="#fff" rx="5.1" ry="7.5" transform="rotate(-22 186.4 242)"/>
  
    <ellipse fill="#15212a" cx="348" cy="190.6" rx="8.3" ry="19.4" transform="rotate(-57.5 348 190.6)"/>
    <ellipse fill="#15212a" cx="152" cy="205.1" rx="19.4" ry="8.3" transform="rotate(-32.5 152 205)"/>
  
  <path
    d="M250,0a250,250 0 1,1 0,500"
    fill="#15212a"
    fill-opacity="0.08"
  />

  </svg>
