
  <svg
    xmlns="http://www.w3.org/2000/svg"
    version="1.1"
    width="250"
    height="250"
    viewBox="0 0 500 500"
  >
    
  <rect
    width="500"
    height="500"
    rx="250"
    fill="#e4e3cd"
  />

    <path fill="#ec8a90" d="M440.7 280.2c0 6.7-.4 13.1-1.2 19.2-1.1 7.9-2.9 15.2-5.3 21.9a86.3 86.3 0 01-20.7 32.6C393 374.3 362 385.2 325 390.6c-23 3.3-48.3 4.5-74.9 4.5a529 529 0 01-75-4.6c-68-9.8-115.7-38.4-115.7-110.3 0-96.3 85.4-174.3 190.7-174.3 95.7 0 175 64.4 188.6 148.3a161 161 0 012.1 26z"/>
  
    <path fill="#b04e54" d="M46.1 205.5c2-34.2 73.5-80.3 97.5-80.3S119 235.2 107 243.5s-62.8-3.7-61-38zM454 205.5c-2-34.2-73.5-80.3-97.5-80.3s24.6 110 36.4 118.3 62.9-3.7 61-38z"/>
  
    <path fill="#fff" d="M324.7 343.4c0 34.5-33.4 29.8-74.7 29.8s-74.7 4.7-74.7-29.8 33.4-62.2 74.7-62.2 74.7 27.8 74.7 62.3z"/>
    <path fill="#15212a" d="M274.4 312.3c-.9 0-1.5.7-1.5 1.5 0 6-5.6 8.7-10.7 8.7-4.9 0-10.1-2.5-10.6-7.8v-14.3c13-.1 23.3-1.5 23.3-10.1 0-9-11.2-16.2-24.9-16.2s-24.9 7.2-24.9 16.2c0 8.6 10.3 10 23.3 10v14.5c-.5 5.3-5.7 7.7-10.6 7.7-5.1 0-10.6-2.7-10.6-8.7a1.5 1.5 0 10-3 0c0 3.6 1.5 6.7 4.4 8.8 2.4 1.9 5.7 2.9 9.2 2.9 4.9 0 9.8-2.1 12.2-6.1.7 1.2 1.7 2.3 3 3.2 2.4 1.8 5.7 2.8 9.2 2.8 6.8 0 13.7-4 13.7-11.6 0-.8-.7-1.5-1.5-1.5z"/>
  
    <circle cx="169" cy="254.5" r="17.2" fill="#15212a"/>
    <circle cx="175.3" cy="247.8" r="5.9" fill="#fff"/>
    <circle cx="331" cy="254.5" r="17.2" fill="#15212a"/>
    <circle cx="324.7" cy="247.8" r="5.9" fill="#fff"/>
  
    <ellipse fill="#15212a" cx="348" cy="190.6" rx="8.3" ry="19.4" transform="rotate(-57.5 348 190.6)"/>
    <ellipse fill="#15212a" cx="152" cy="205.1" rx="19.4" ry="8.3" transform="rotate(-32.5 152 205)"/>
  
  <path
    d="M250,0a250,250 0 1,1 0,500"
    fill="#15212a"
    fill-opacity="0.08"
  />

  </svg>
