
  <svg
    xmlns="http://www.w3.org/2000/svg"
    version="1.1"
    width="250"
    height="250"
    viewBox="0 0 500 500"
  >
    
  <rect
    width="500"
    height="500"
    rx="250"
    fill="#ece2e1"
  />

    <path fill="#ec8a90" d="M440.7 280.2c0 6.7-.4 13.1-1.2 19.2-1.1 7.9-2.9 15.2-5.3 21.9a86.3 86.3 0 01-20.7 32.6C393 374.3 362 385.2 325 390.6c-23 3.3-48.3 4.5-74.9 4.5a529 529 0 01-75-4.6c-68-9.8-115.7-38.4-115.7-110.3 0-96.3 85.4-174.3 190.7-174.3 95.7 0 175 64.4 188.6 148.3a161 161 0 012.1 26z"/>
  
    <path fill="#ffa8ae" d="M235 161.3c14.4 27.5 0 71-41.1 115.2-31.8 34.1-86.6 16.8-101-10.8s7.5-67.4 48.9-89 78.9-43 93.3-15.4z"/>
  
    <path fill="#b04e54" d="M107.1 128.2c-47.4 23-20.8 59 31.7 51.7 7.2-1 13.2-6.2 15.3-13.2 15.1-50.7-17-82-47-38.5zM392.2 128.2c47.4 23 20.8 59-31.8 51.7-7.2-1-13.1-6.2-15.2-13.2-15.1-50.7 17-82 47-38.5z"/>
  
    <path fill="#fef6f4" d="M332 100.7c-10.2-27.5-29.9-29.9-53.6-21.5C273.2 72.5 266 67 250 66.3c-15.9.6-23.2 6.2-28.4 13-23.8-8.5-43.4-6.1-53.5 21.4-39 19.8-5.9 84.7 33 64.8 10.9 12 24.4 19.1 48.9 5.7 24.5 13.4 38 6.3 48.9-5.7 38.9 19.9 72-45 33-64.8z"/>
  
    <path fill="#15212a" d="M286 305.4c3-.6 5.7-.6 8.2-.1-5 17.3-18.5 26.5-42 28.8V318c0-8.2 4.9-15.7 12.5-18.6 10-3.8 16.6-11.6 17.3-21.3.5-7.8-5.3-14.8-13.2-15a13.5 13.5 0 00-13.6 11.1c-2.6 1-7.8 1-10.4 0a13.5 13.5 0 00-13.7-11.1c-7.6.2-13.5 7-13 14.6.3 8.1 4.8 15.2 12.5 19.5 1.3.8 2.8 1.5 4.3 2.1a20 20 0 0112.9 18.7v20.4c27.7-1.6 44.5-12 50.3-32 2.3 1 4.5 2.5 6.6 4.6-4-8.2-10.4-9.4-18.7-5.6z"/>
  
    <circle fill="#15212a" cx="331.04" cy="253.21" r="22.21"/>
    <circle fill="#fff" cx="338.81" cy="246.07" r="8.97"/>
    <circle fill="#fff" cx="322.5" cy="263.97" r="5.01"/>
    <circle fill="#15212a" cx="168.96" cy="253.21" r="22.21"/>
    <circle fill="#fff" cx="161.19" cy="246.07" r="8.97"/>
    <circle fill="#fff" cx="177.5" cy="263.97" r="5.01"/>
  
    <path fill="#15212a" d="M333 196.7h-.4l-27.6-2.1a5 5 0 01.8-10l27.5 2a5 5 0 01-.3 10zM166.6 196.7h.4l27.5-2.1a5 5 0 00-.7-10l-27.6 2a5 5 0 00.4 10z"/>
  
  <path
    d="M250,0a250,250 0 1,1 0,500"
    fill="#15212a"
    fill-opacity="0.08"
  />

  </svg>
